<?xml version="1.0" encoding="utf-8"?>
<!-- Generator: Adobe Illustrator 30.7.0, SVG Export Plug-In . SVG Version: 9.03 Build 0)  -->
<svg version="1.0" id="Capa_1" xmlns="http://www.w3.org/2000/svg" xmlns:xlink="http://www.w3.org/1999/xlink" x="0px" y="0px"
	 viewBox="0 0 381.72 442.43" style="enable-background:new 0 0 381.72 442.43;" xml:space="preserve">
<style type="text/css">
	.st0{fill:#004A00;}
	.st1{opacity:0.85;}
	.st2{fill:#006F00;}
	.st3{fill:#FFFFFF;}
	.st4{display:none;}
	.st5{display:inline;fill:#FFFFFF;}
	.st6{display:inline;}
	.st7{fill:#FFFFFF;stroke:#000000;stroke-width:1.0006;stroke-miterlimit:10;}
	.st8{clip-path:url(#SVGID_00000075155282917100555490000000957245132488770695_);}
	.st9{clip-path:url(#SVGID_00000106107050421218878920000016190728300526176405_);}
	.st10{fill:#FDFDFD;}
	.st11{fill:#0C0D0C;}
	.st12{fill:#268228;}
	.st13{fill:#268127;}
	.st14{fill:#010101;}
	.st15{fill:#FDFDFD;stroke:#000000;stroke-width:0.75;stroke-miterlimit:10;}
	.st16{fill:#010101;stroke:#000000;stroke-width:0.75;stroke-miterlimit:10;}
	.st17{fill:#278129;}
	.st18{fill:#29802B;}
	.st19{fill:#258327;}
	.st20{fill:#0A0C0A;}
	.st21{fill:#0F110F;}
	.st22{fill:#2F8A2F;}
	.st23{fill:#FCFCFC;}
	.st24{fill:#2B812C;}
	.st25{fill:#050905;}
	.st26{fill:#258029;}
	.st27{fill:#FDFCFC;}
</style>
<g>
	<g>
		<path class="st10" d="M73.51,368.51c3.72-0.71,8.57-1.88,8.44-5.99c-0.04-1.38-0.73-2.43-1.98-3.75c2.93-0.9,5.07-2.89,4.59-5.8
			c-0.34-2.11-1.93-3.33-3.74-4.57c2.97-1.44,3.62-4.42,2.1-6.96c-1.16-1.94-3.08-2.85-5.5-3.81c2.2-1.71,2.77-4.16,1.49-6.52
			c-3.5-6.47-16.94-5.88-23.56-8.07l-14.75-41.09c-0.31-0.87-0.14-1.96,0.33-2.52c0.42-0.49,1.34-1.08,2.44-1.02l55.39,3.11
			l30.21,1.89c3.04,0.19,6.22,2.02,7.17,5.08l28.88,92.14c0.28,0.9-0.17,1.81-0.49,2.24c-0.3,0.4-1.12,0.82-2.05,0.75l-82.42-6.35
			C75.64,376.95,74.57,372.18,73.51,368.51z M57.21,295.49c2.6-1.91,2.31-5.62,0.19-7.65c-1.57-1.51-3.61-1.77-5.4-0.8
			c-1.6,0.87-2.5,2.61-2.27,4.67c0.18,1.72,1.32,3.14,2.43,3.84C53.68,296.52,55.68,296.61,57.21,295.49z M101.12,313.86l-0.14,2.21
			l28.94,1.85l0.14-2.21L101.12,313.86z M103.79,323.01l-0.13,2.16l28.96,1.8l0.13-2.16L103.79,323.01z M106.6,332.22l-0.14,2.22
			l28.66,1.77l0.14-2.22L106.6,332.22z"/>
		<path class="st10" d="M78.83,345.4c-9.9,3.22-16.95-0.77-17.38,2.36c-0.65,4.7,12.39,0.72,18.59,4.49
			c0.61,0.37,1.06,0.99,1.01,1.57c-0.04,0.52-0.62,1.01-1.28,1.27c-8.27,3.22-14.88-0.75-15.28,2.89c-0.37,3.36,5.99,1.09,12.11,3.1
			c0.68,0.22,2.26,1.31,1.53,2.02c-1.87,1.81-4.79,1.74-7.25,1.96c-7.09,0.61-13.41-2.09-17.71-7.83
			c-5.96-7.96-8.85-18.09-8.02-28.06c0.32-3.81,1.94-7.13,4.97-9.28c2.24,2.86,0.48,5.17,3.38,6.22c5.79,2.1,12.54,1.6,19.64,4.52
			c1.21,0.5,3.09,1.85,2.77,3.22c-0.3,1.28-2.4,1.47-3.53,1.67c-7.89,1.42-13.84-1.71-14.45,0.97c-1.1,4.85,14.32,1.01,21.33,6.02
			c0.54,0.38,0.82,1.05,0.86,1.54C80.18,344.62,79.57,345.16,78.83,345.4z"/>
		<path class="st10" d="M168.62,381.66c-0.4-2.38-0.77-4.54-1.71-6.79l-7.72-25.06l-19.47-61.99c-1.43-4.56-5.46-7.67-10.24-7.97
			l-36.66-2.28l-44.59-2.49l-6.55-0.18c1.41-2.22,3.73-3.06,6.21-2.91l37.55,2.18l48.19,3.07c4.46,0.28,8,3.15,9.28,7.27l7.18,23.14
			l20.99,68.67C171.32,378.42,170.83,380.25,168.62,381.66z"/>
		<path class="st14" d="M57.21,295.49c-1.53,1.12-3.53,1.03-5.06,0.07c-1.11-0.7-2.24-2.12-2.43-3.84c-0.22-2.07,0.68-3.8,2.27-4.67
			c1.79-0.98,3.83-0.71,5.4,0.8C59.51,289.87,59.81,293.57,57.21,295.49z M55.56,292.42c0.55-0.69,0.09-1.52-0.24-1.95
			c-0.29-0.37-1.04-0.88-1.67-0.54c-0.92,0.49-0.73,1.7-0.2,2.37C53.83,292.79,54.87,293.28,55.56,292.42z"/>
		
			<rect x="117.13" y="310.48" transform="matrix(0.0619 -0.9981 0.9981 0.0619 -213.4738 422.8512)" class="st14" width="2.16" height="29.02"/>
		
			<rect x="119.75" y="319.85" transform="matrix(0.0615 -0.9981 0.9981 0.0615 -220.1418 434.2999)" class="st14" width="2.23" height="28.72"/>
		
			<rect x="114.41" y="301.39" transform="matrix(0.0638 -0.998 0.998 0.0638 -207.1021 411.0062)" class="st14" width="2.21" height="29"/>
		<path class="st10" d="M55.56,292.42c-0.68,0.86-1.73,0.37-2.11-0.12c-0.53-0.68-0.73-1.89,0.2-2.37c0.63-0.33,1.38,0.18,1.67,0.54
			C55.65,290.9,56.11,291.73,55.56,292.42z"/>
	</g>
	<path class="st10" d="M168.97,140.7c0.95,3.99-3.79,17.81-0.42,19.69c5.41,3.02,11.91,2.01,16.56-1.53
		c0.76-0.58,0.14-1.79-0.32-2.15c-2.8-2.21-5.52,4.23-13.65,1.03c-0.21-2.54-0.06-5.02,0.5-7.5c1.47-6.56,1.41-12.96,0.58-19.73
		c2.2-1.29,5.79-1.32,7.61,0.14c0.6,3.95,2.15,6.97,5.71,9.1c8.11,4.86,18.15,4.73,26.48,0.21c4.41-2.39,7.31-6.22,7.74-11.36
		l0.39-7.26c5.23-1.88,10.48-3.45,16.01-4.55c0.78,10.61,0.75,20.6,0.31,30.87c-0.93,21.36-14.8,40.07-35.19,46.54
		c-8.7,2.76-17.56,2.97-26.34,0.68c-22.08-5.76-31.57-13.35-37.92-35.69c-1.63-5.74-3.25-11.21-4.55-17.19
		c1.93,2.01,2.98,3.65,5.11,4.8C148.44,152.64,161.2,149.45,168.97,140.7z M165.75,174.53c2.89,7.38,10.44,12.3,18.36,11.12
		c11.28-1.68,16.58-15.03,13.39-17.31c-0.59-0.42-1.47-0.19-2.26,0.19c-6.95,3.35-18.62,6.26-26.02,4.4
		c-0.66-0.16-1.81-1.38-2.49-0.79C166.29,172.54,165.29,173.36,165.75,174.53z"/>
	<path class="st10" d="M180.03,108.88c-2.74,5.82-1.57,11.96-0.96,17.55c-2.69-0.8-4.96-0.33-7.47,0.48c-1.32-3.04-0.36-6-3.45-7.11
		c-1.26-3.35-2.13-9.95-7.49-9.36l-30.77,3.4c-0.96,0.11-0.33-2.16,0.2-2.61c2.73-2.36,5.77-4.58,8.87-6.51l20.42-12.75
		c3.41-2.13,6.52-4.15,9.72-6.94c10.2,7.21,24.62,7.85,36.77,8.78c6.43,0.49,21.96,1.4,26.39,5.42c1.91,4.4,2.58,9.24,3.3,13.91
		c-5.41,1.35-10.19,2.46-15.51,4.42c-0.46-3.88-0.11-7.56-0.86-11.32c-0.28-1.41-2.04-1.9-3.44-1.85
		c-10.76,0.42-21.22,1.3-31.88,2.54C182.58,107.07,180.64,107.57,180.03,108.88z"/>
	<path class="st10" d="M192.21,227.99c-7.41-6.38-14.42-12.06-21.99-17.77c1.08-4.1,2.12-7.87,2.59-12.14
		c13.43,3.75,27.36,2.22,39.69-4.85c0.86,0.71,0.93,1.82,1.15,2.77c0.27,2.97,1.35,5.61,2.3,8.69
		C207.81,212.11,200.19,219.68,192.21,227.99z"/>
	<path class="st10" d="M187.34,136.67c-2.14-1.29-3.18-2.94-3.59-5.12c-1.09-5.86-3.13-15.44-0.85-20.64
		c1.34-0.68,2.71-0.65,4.23-0.77l28.66-2.21c0.5,3.96,0.35,7.74,0.46,11.68c0.1,3.41,0.2,6.72-0.24,10.06
		c-0.4,2.39-1.55,4.21-3.47,5.65C205.24,140.78,195.26,141.47,187.34,136.67z M209.92,117.35c1.18,0.56,2.32-0.67,2.36-1.32
		c0.05-0.69-0.23-1.6-1.11-2.02c-3.58-1.7-7.54-2.58-11.57-2.51c-4.73,0.09-8.84,1.91-12.71,4.46c-0.97,0.64-1.41,1.65-0.68,2.81
		c0.42,0.66,1.61,0.86,2.55,0.19C195,114.43,202.88,113.98,209.92,117.35z M195.77,125.43c-1.39,2.11-1.39,4.58,0.05,6.37
		c1.46,1.81,3.55,1.97,5.82,1.52c2.33-0.46,2.4-3.23,3.78-4.56c1.76-1.67,5.32-2.05,5.74-5.48c0.09-0.73-0.19-1.76-0.94-2.01
		c-0.76-0.25-1.63-0.16-2.18,0.84c-0.57,1.05-2.4,3.08-3.86,2.51c-1.55-0.6-2.48-2.04-4.44-1.66
		C198.34,123.24,196.83,123.83,195.77,125.43z"/>
	<path class="st10" d="M164.66,140.05c-6.28,5.84-15.21,7.85-23.05,4.81c-3.09-1.19-5.39-3.1-6.36-6.26
		c-2.11-6.84-3.54-13.71-4.94-20.96l30-3.7c1.23-0.15,1.95,0.28,2.53,1.37c1.54,3.19,2.44,6.7,2.73,10.33l0.76,9.44
		C166.48,136.86,166.14,138.68,164.66,140.05z M159.32,122.04c1.36,0.28,2.43-0.24,2.53-1.5c0.1-1.19-0.62-1.88-1.85-2.12
		c-7.98-1.56-18.08-1.36-23.15,5.96c-0.53,0.77-0.5,1.98,0.14,2.49c0.53,0.42,2.02,0.58,2.54-0.15
		C143.96,120.59,152.54,120.66,159.32,122.04z M147.23,135.76c0.27,2.35,1.69,3.6,3.65,3.77c2.77,0.24,5.06-1.2,5.94-3.59
		c0.87-2.38,0.09-5.17-2.16-6.54c-2.87-1.75-5.54-0.07-7.3,2.33c-1.87,2.55-5.72-2.95-7.45,0
		C138.27,134.53,144.38,136.3,147.23,135.76z"/>
	<path class="st10" d="M210.4,241.6c-2.99,1.9-5.51,3.75-8.7,5.36l-6.78-16.43l22.44-22.24l5.48,11.2l4.55,10.01L210.4,241.6z"/>
	<path class="st10" d="M178.96,247.42c-5.77-2.13-10.6-5.16-15.88-8.16c1.15-8.7,3.31-16.85,5.97-25.28l20.25,16.37L178.96,247.42z"
		/>
	<path class="st10" d="M243.87,116.85c6.03,3.62,8.38,8.49,7.85,15.67c-0.52,6.86-4.75,12.71-11.51,14.85
		c0.45-10.55,0.44-20.49-0.4-30.94C241.05,115.59,242.61,116.1,243.87,116.85z"/>
	<path class="st10" d="M132.73,157.01c-8.29-0.02-13.67-4.49-15.37-12.54c0.9-1.71,0.42-3.41,0.64-5.25
		c0.37-3.16,1.67-6.15,3.24-8.85c0.95-1.62,2.78-2.47,4.43-3.31C127.44,137.22,129.81,146.97,132.73,157.01z"/>
	<path class="st10" d="M194.65,329.85c-1.67-4.82-8.97,8.09-9.13,10.59c-3.67-0.68-5.25-4.42-3.99-7.88
		c1.47-4.02,3.84-7.52,6.42-10.94c0.67-0.89,0.65-1.89-0.12-2.55c-0.66-0.56-1.79-0.48-2.46,0.36c-3.32,4.13-6.15,8.55-7.83,13.59
		c-10.39-4.56,0.9-17.86,5.12-22.64c0.63-0.71,0.33-1.92-0.28-2.37c-0.49-0.36-1.54-0.47-2.15,0.19c-0.84,0.91-1.77,0.82-2.93,0.85
		c-5.86,0.15-11.29,1.51-16.98,2.73c-1.6,0.35-4.08,0.76-5.13-0.48c-0.92-1.09-0.95-2.74-1.39-4.03c1.71-1.68,3.53-2.75,5.67-3.72
		c8.46-3.81,17.53-5.97,26.83-6.25c4.94-0.15,9.2,1.15,13.03,4.05c3.32,2.51,6.36,5.12,9.54,7.83l10.68,9.1
		c2.33,8.95,1.75,18.82-3.99,26.42c-1.18,1.56-2.82,3.78-4.87,4.18c-4.33,0.85-8.66-2.34-10.3-6.19c-0.39-0.91,0-1.82-0.67-2.28
		c-1.78-1.24-3.01,0.28-4.45,1.74c-0.65,0.66-0.59,1.66-0.22,2.23c0.52,0.81,1.5,0.39,2.71,0.86c-1.28,2.15-4.41,2.24-6.46,1.04
		c-5.57-3.25,0.44-11.06,3.08-14.46C194.91,331.12,194.85,330.43,194.65,329.85z"/>
	<path class="st14" d="M195.77,125.43c1.05-1.6,2.57-2.19,3.97-2.46c1.96-0.38,2.89,1.06,4.44,1.66c1.46,0.56,3.29-1.46,3.86-2.51
		c0.55-1,1.42-1.09,2.18-0.84c0.75,0.25,1.03,1.28,0.94,2.01c-0.42,3.44-3.97,3.81-5.74,5.48c-1.37,1.33-1.44,4.1-3.78,4.56
		c-2.27,0.45-4.36,0.28-5.82-1.52C194.38,130.01,194.38,127.54,195.77,125.43z"/>
	<path class="st14" d="M209.92,117.35c-7.04-3.36-14.92-2.91-21.15,1.61c-0.93,0.68-2.13,0.47-2.55-0.19
		c-0.73-1.15-0.29-2.17,0.68-2.81c3.87-2.56,7.98-4.38,12.71-4.46c4.04-0.08,8,0.81,11.57,2.51c0.88,0.42,1.16,1.33,1.11,2.02
		C212.24,116.67,211.1,117.91,209.92,117.35z"/>
	<path class="st14" d="M147.23,135.76c-2.85,0.54-8.96-1.23-7.32-4.03c1.73-2.95,5.58,2.55,7.45,0c1.76-2.4,4.42-4.07,7.3-2.33
		c2.25,1.37,3.04,4.16,2.16,6.54c-0.88,2.39-3.17,3.82-5.94,3.59C148.92,139.36,147.5,138.12,147.23,135.76z"/>
	<path class="st14" d="M159.32,122.04c-6.77-1.39-15.35-1.45-19.79,4.69c-0.52,0.72-2.01,0.56-2.54,0.15
		c-0.65-0.51-0.67-1.72-0.14-2.49c5.06-7.32,15.16-7.52,23.15-5.96c1.23,0.24,1.95,0.93,1.85,2.12
		C161.74,121.8,160.68,122.32,159.32,122.04z"/>
	<g>
		<path class="st14" d="M165.75,174.53c-0.46-1.17,0.54-2,0.98-2.38c0.68-0.59,1.84,0.63,2.49,0.79c7.39,1.86,19.07-1.06,26.02-4.4
			c0.78-0.38,1.67-0.61,2.26-0.19c3.19,2.28-2.11,15.63-13.39,17.31C176.19,186.83,168.64,181.92,165.75,174.53z M182.38,182.2
			c5.8-0.14,10.13-4.35,11.91-9.31c-7.42,2.8-14.77,4.32-22.76,4.23C174.11,180.32,177.98,182.31,182.38,182.2z"/>
		<path class="st10" d="M182.38,182.2c-4.4,0.11-8.27-1.88-10.85-5.08c8,0.1,15.34-1.43,22.76-4.23
			C192.51,177.85,188.18,182.06,182.38,182.2z"/>
	</g>
	<g>
		<path class="st14" d="M308.62,248c1.52,5.31,2.97,10.6,4.05,16.2c0.63,3.27,1.19,6.39,1.97,9.42c0.09,0.34,0.06,0.73,0.11,1.08
			c1.9,12.72,3.23,25.45,3.78,38.49c0.08,1.95,0.29,3.6,0.31,5.34l0.16,14.29l-0.12,8.77c-0.1,6.87-0.73,13.71-1.97,20.67
			c-1.28,7.12-3.64,13.57-6.4,19.99c-1.58,3.68-4.31,6.82-7.34,9.7c-5.2,4.94-11.94,7.16-18.83,8.13c-0.6,0.08-1.22-0.31-2.12,0.04
			c0.62,3.94,0.99,7.86,1.27,11.92c0.23,3.33,0.67,6.53,0.71,9.88c0.02,1.51-1.03,2.34-2.33,2.27c-0.98-0.97-1.57-1.36-1.53-3
			c0.1-4.48-0.74-8.93-1.04-13.63c-0.06-0.97,0.25-2.22-0.51-2.68c0.27-1.55-0.3-3.31-0.21-4.92l-3.53-0.34l-1.51-0.38
			c-1.6-0.4-3.39-0.53-4.95-1.07c-2.72-0.96-5.52-1.83-8.25-3.06c-16.33-7.39-30.32-18.23-43.75-29.86
			c-3.03-2.63-5.45-5.55-8.29-8.31c-1.48-1.44-1.92-3.42-3.1-4.89c-1.23-1.52-4.05-1.74-5.13-3.76c-2.08,1.6-3.91,2.4-6.54,2.38
			c-2.27-0.02-5.37-1.82-6.62-3.85c-1.01-1.63-1.48-2.65-3.41-3.25c-2.94-0.91-5.29-3.66-5.63-6.79c-6.57-1.44-9.65-7.98-7.4-14.24
			c1.27-3.54,3.32-6.42,5.53-9.8c-7.39,0.46-12.33,2.21-19.52,3.23l11.45,37.15l6.59,22.49c0.83,2.84-0.79,6.35-2.99,8.39
			c-3.15,2.91-6.66,3.52-10.88,3.18l-47.8-3.84c-0.14,4.41-0.8,8.31-1.18,12.51l-1.86,20.72c-0.2,2.17-0.07,3.67-1.48,4.06
			c-0.84,0.23-2.29-0.14-2.26-1.35c0.09-3.41,0.25-6.71,0.59-10.06l1.68-16.29c-4.09,2.93-11.32,5.11-15.99,4.71
			c-18.13-1.55-31.23-15.81-36.22-32.7c-2.88-2.11-5.16-4.48-7.18-7.52c-6.92-10.22-12.88-33.34,0.19-41.11L37.3,283.18
			c-1.71-4.8,0.25-10.15,4.27-13.11c2.13-1.57,4.78-1.76,7.43-1.61l36.76,2c1.47-2.55,2.67-5.15,3.44-8.25
			c-7.54-13.86-0.35-28.88,12.98-35.98c-10.71-12.79-10.76-29.04,0.48-40.83c2.5-2.56,4.9-4.88,6.93-7.83
			c4.9-6.99,5.72-14.25,13.57-19.13c-6.05-3.21-9.06-9.14-9.51-15.68c-4.47-7.38-9.15-24.34-10.69-32.98
			c-4.51-25.34,2.87-50.38,21.32-68.43c6.08-5.95,13.03-10.4,20.96-13.38c15.09-5.66,29.68-3.17,44.05,2.98
			c14.73-3.42,31.9-1.75,45.95,3.11c8.18,2.82,14.6,8.22,18.96,15.77c9.99,17.32,13.41,37.43,10.65,57.28
			c-1.33,9.57-3.17,18.55-6.68,27.51c2.84,1.81,4.76,4.04,6.57,6.65c6.3,9.1,7.03,20.04,6.8,30.76c-0.1,4.49,1.91,8.11,5.89,10.11
			c9.2,4.64,16.2,10.03,19.23,20.36c1.88,6.44,2.03,13.06,0.5,19.58l-1.31,5.58c4.24,2.4,6.66,6.16,8.75,10.27
			c0.63,1.24,1.43,1.84,1.63,3.41C306.54,243.69,308.01,245.87,308.62,248z M180.03,108.88c0.61-1.31,2.55-1.81,3.85-1.96
			c10.66-1.24,21.12-2.12,31.88-2.54c1.4-0.05,3.16,0.44,3.44,1.85c0.75,3.77,0.39,7.45,0.86,11.32c5.32-1.96,10.1-3.07,15.51-4.42
			c-0.71-4.67-1.38-9.51-3.3-13.91c-4.43-4.02-19.97-4.92-26.39-5.42c-12.15-0.94-26.57-1.57-36.77-8.78
			c-3.2,2.79-6.31,4.81-9.72,6.94l-20.42,12.75c-3.11,1.94-6.14,4.16-8.87,6.51c-0.53,0.46-1.17,2.72-0.2,2.61l30.77-3.4
			c5.37-0.59,6.23,6,7.49,9.36c3.1,1.1,2.14,4.06,3.45,7.11c2.52-0.81,4.78-1.28,7.47-0.48
			C178.45,120.85,177.29,114.7,180.03,108.88z M187.34,136.67c7.92,4.8,17.9,4.11,25.2-1.36c1.92-1.44,3.07-3.26,3.47-5.65
			c0.44-3.33,0.34-6.65,0.24-10.06c-0.11-3.94,0.04-7.72-0.46-11.68l-28.66,2.21c-1.52,0.12-2.88,0.09-4.23,0.77
			c-2.29,5.21-0.24,14.78,0.85,20.64C184.15,133.73,185.2,135.38,187.34,136.67z M164.66,140.05c1.48-1.37,1.81-3.19,1.67-4.97
			l-0.76-9.44c-0.29-3.63-1.19-7.13-2.73-10.33c-0.58-1.09-1.3-1.52-2.53-1.37l-30,3.7c1.4,7.24,2.83,14.12,4.94,20.96
			c0.98,3.16,3.27,5.07,6.36,6.26C149.45,147.9,158.38,145.89,164.66,140.05z M243.87,116.85c-1.26-0.76-2.82-1.26-4.07-0.42
			c0.84,10.45,0.85,20.39,0.4,30.94c6.76-2.14,11-7.99,11.51-14.85C252.26,125.34,249.9,120.47,243.87,116.85z M168.97,140.7
			c-7.76,8.76-20.53,11.94-31.37,6.1c-2.13-1.15-3.18-2.79-5.11-4.8c1.29,5.98,2.91,11.45,4.55,17.19
			c6.35,22.34,15.83,29.93,37.92,35.69c8.78,2.29,17.64,2.08,26.34-0.68c20.38-6.47,34.26-25.19,35.19-46.54
			c0.45-10.27,0.48-20.26-0.31-30.87c-5.53,1.1-10.78,2.67-16.01,4.55l-0.39,7.26c-0.43,5.13-3.33,8.96-7.74,11.36
			c-8.33,4.52-18.37,4.65-26.48-0.21c-3.55-2.13-5.1-5.15-5.71-9.1c-1.83-1.46-5.41-1.43-7.61-0.14c0.83,6.77,0.89,13.17-0.58,19.73
			c-0.56,2.48-0.7,4.96-0.5,7.5c8.12,3.19,10.85-3.24,13.65-1.03c0.46,0.36,1.08,1.57,0.32,2.15c-4.65,3.54-11.15,4.55-16.56,1.53
			C165.18,158.51,169.92,144.69,168.97,140.7z M132.73,157.01c-2.93-10.04-5.3-19.8-7.05-29.95c-1.65,0.84-3.48,1.69-4.43,3.31
			c-1.58,2.7-2.87,5.69-3.24,8.85c-0.22,1.84,0.26,3.54-0.64,5.25C119.06,152.52,124.45,156.99,132.73,157.01z M192.21,227.99
			c7.98-8.32,15.61-15.88,23.74-23.3c-0.95-3.08-2.03-5.72-2.3-8.69c-0.22-0.94-0.29-2.05-1.15-2.77
			c-12.32,7.07-26.26,8.6-39.69,4.85c-0.47,4.28-1.51,8.04-2.59,12.14C177.78,215.93,184.79,221.61,192.21,227.99z M210.4,241.6
			l16.98-12.1l-4.55-10.01l-5.48-11.2l-22.44,22.24l6.78,16.43C204.89,245.36,207.41,243.51,210.4,241.6z M178.96,247.42
			l10.34-17.08l-20.25-16.37c-2.67,8.43-4.82,16.58-5.97,25.28C168.36,242.26,173.19,245.29,178.96,247.42z M293.57,235.36
			c-3.14,10.75-8.29,20.33-15.66,29.01c-4.37,5.15-8.78,9.86-14.78,13.09c-5.13,2.77-10.44,4.24-16.25,4.23
			c-12.57-0.03-23.96-8.09-24.63-21.7c-0.52-10.47,4.95-16.41,6.15-26.37c-3.34,2.01-6.04,4.13-9.06,6.16l-13.83,9.33
			c0.35-0.24-5.07,2.86-5.12,1.87c-2.2-1.42-1.36-2.12-2.75-3.92c0.15-1.19-1.04-2.31-1.3-3.26c-0.92-3.35-2.56-6.47-3.91-9.94
			c-1.38-0.94-7.26,10.64-8.08,12.07c-0.69,1.21-2.1,2.09-2.51,3.53c-0.55,1.94-2.31,1.89-3.83,1.78c-1.4-1.1-3.27-1.37-4.81-2.2
			l-7.22-3.9c-1.02-0.55-2.12-0.54-3.15-1.98c-0.44,3.54-0.36,6.51-0.46,9.89c-0.34,12.05-5.77,24.59-15.65,31.93l5.82,18.6
			c2.66-2,5.04-3.16,7.8-4.28c11.04-4.49,28.94-8.93,39.5-1.87c4.17,2.79,7.76,5.96,11.48,9.23c1.92,1.69,3.85,3.07,5.76,5.1
			c3-1.74,6.08-1.49,9.27-0.45c5.26,1.72,10.08,3.83,15.18,6.05c5.7,2.48,10.82,5.99,16.43,8.07c0.31,0.68,0.99,1.26,2.04,1.36
			c0.19-0.94,0.04-1.79,0.11-2.63c0.9-11.4,1.72-22.81,3.67-34.24c0.18-1.05,1.18-1.5,1.92-1.39c0.91,0.15,1.42,0.96,1.3,1.99
			l-1.63,14.99c-0.79,7.25-1.49,14.33-1.72,21.61c-0.04,1.24,0.57,2.16,1.53,2.77l11.47,7.3c0.85,0.54,0.93,1.71,0.62,2.31
			c-0.48,0.91-1.69,1.17-2.69,0.53c-11.62-7.37-23.35-14.16-35.91-19.88c-2.95-1.34-15.26-7.02-17.88-5.8
			c3.24,2.18,2.6,6.76,3.52,9.9c0.82,2.78,0.29,5-0.06,7.73l-0.27,2.08l-1.88,6.66c-0.88,0.95-0.89,2.37-1.71,3.49
			c-2.68,3.7-5.43,8.37-10.62,8.49c0.35,1.5,1.48,1.96,2.2,2.72c11.62,12.33,25.52,22.81,40.27,31.44
			c10.76,6.3,27.46,12.94,39.05,7.39c10.42-3.91,16.1-12.26,19.27-22.55c1.22-3.94,2.69-7.98,2.68-12.16
			c1.58-5.76,1.9-11.97,2.07-18.01c0.36-12.95-0.34-25.83-1.21-38.98c-1.07-16.22-3.36-31.98-7.38-47.67
			c-1.1-4.27-2.35-8.1-4.15-11.8c-1.32-2.73-2.38-8.08-7.79-11.5C293.79,232.81,293.9,234.23,293.57,235.36z M102.47,271.2
			c-4.05-1.36-7.39-2.29-10.18-5.37c-1.04,1.75-1.54,3.15-2.17,4.98L102.47,271.2z M168.62,381.66c2.21-1.4,2.7-3.24,2.45-5.34
			l-20.99-68.67l-7.18-23.14c-1.28-4.12-4.83-6.99-9.28-7.27l-48.19-3.07l-37.55-2.18c-2.49-0.14-4.8,0.69-6.21,2.91l6.55,0.18
			l44.59,2.49l36.66,2.28c4.78,0.3,8.81,3.41,10.24,7.97l19.47,61.99l7.72,25.06C167.85,377.11,168.23,379.28,168.62,381.66z
			 M73.51,368.51c1.06,3.66,2.13,8.43,6.56,8.77l82.42,6.35c0.92,0.07,1.74-0.34,2.05-0.75c0.32-0.43,0.77-1.34,0.49-2.24
			l-28.88-92.14c-0.96-3.06-4.13-4.89-7.17-5.08l-30.21-1.89l-55.39-3.11c-1.1-0.06-2.02,0.52-2.44,1.02
			c-0.47,0.56-0.64,1.65-0.33,2.52l14.75,41.09c6.62,2.19,20.06,1.6,23.56,8.07c1.27,2.36,0.7,4.81-1.49,6.52
			c2.42,0.96,4.35,1.87,5.5,3.81c1.51,2.54,0.87,5.52-2.1,6.96c1.81,1.24,3.4,2.47,3.74,4.57c0.47,2.91-1.66,4.9-4.59,5.8
			c1.24,1.32,1.93,2.37,1.98,3.75C82.08,366.63,77.23,367.8,73.51,368.51z M194.65,329.85c0.2,0.58,0.26,1.26-0.27,1.95
			c-2.63,3.4-8.65,11.21-3.08,14.46c2.05,1.2,5.18,1.11,6.46-1.04c-1.22-0.47-2.2-0.05-2.71-0.86c-0.37-0.58-0.43-1.58,0.22-2.23
			c1.45-1.46,2.67-2.97,4.45-1.74c0.67,0.46,0.28,1.37,0.67,2.28c1.64,3.85,5.97,7.03,10.3,6.19c2.05-0.4,3.69-2.62,4.87-4.18
			c5.74-7.6,6.32-17.47,3.99-26.42l-10.68-9.1c-3.18-2.71-6.23-5.32-9.54-7.83c-3.83-2.9-8.09-4.2-13.03-4.05
			c-9.3,0.28-18.37,2.44-26.83,6.25c-2.14,0.97-3.96,2.04-5.67,3.72c0.44,1.3,0.47,2.94,1.39,4.03c1.05,1.25,3.53,0.83,5.13,0.48
			c5.7-1.23,11.12-2.58,16.98-2.73c1.16-0.03,2.1,0.06,2.93-0.85c0.61-0.66,1.66-0.55,2.15-0.19c0.62,0.46,0.91,1.66,0.28,2.37
			c-4.22,4.78-15.51,18.08-5.12,22.64c1.68-5.04,4.5-9.46,7.83-13.59c0.68-0.84,1.8-0.92,2.46-0.36c0.77,0.66,0.79,1.66,0.12,2.55
			c-2.58,3.42-4.95,6.92-6.42,10.94c-1.26,3.46,0.32,7.2,3.99,7.88C185.69,337.94,192.99,325.03,194.65,329.85z M78.83,345.4
			c0.74-0.24,1.35-0.78,1.3-1.37c-0.04-0.49-0.32-1.15-0.86-1.54c-7.01-5.01-22.43-1.16-21.33-6.02c0.61-2.69,6.56,0.44,14.45-0.97
			c1.13-0.2,3.23-0.39,3.53-1.67c0.32-1.37-1.56-2.72-2.77-3.22c-7.1-2.91-13.86-2.41-19.64-4.52c-2.9-1.05-1.14-3.37-3.38-6.22
			c-3.03,2.15-4.65,5.46-4.97,9.28c-0.84,9.97,2.06,20.1,8.02,28.06c4.3,5.74,10.62,8.44,17.71,7.83c2.46-0.21,5.37-0.15,7.25-1.96
			c0.73-0.7-0.85-1.79-1.53-2.02c-6.12-2.01-12.48,0.26-12.11-3.1c0.4-3.64,7.01,0.33,15.28-2.89c0.66-0.26,1.24-0.75,1.28-1.27
			c0.05-0.58-0.41-1.2-1.01-1.57c-6.2-3.78-19.24,0.21-18.59-4.49C61.88,344.63,68.92,348.62,78.83,345.4z M88.22,393.3
			c1.32,0.2,2.85,0.69,4.53,0.69c5.91,0,11.49-2.17,16.07-6.15l0.55-4.22c-1.54-0.73-2.95-0.8-4.55-0.92l-23.15-1.62
			c-10.32-0.72-10.01-8.64-11.78-11.33c-0.96-1.46-3.19-1.07-4.66-1.37c-1.46-0.3-2.7-0.65-3.99,0.31
			c3.12,7.6,7.98,14.03,14.45,18.94C79.4,390.46,83.63,392.03,88.22,393.3z"/>
		<path class="st17" d="M102.47,271.2l-12.34-0.39c0.63-1.82,1.13-3.23,2.17-4.98C95.08,268.91,98.42,269.83,102.47,271.2z"/>
	</g>
	<path class="st17" d="M92.75,393.98c0.08-0.38,0.56-0.21,0.79-0.72c-1.48,0.3-5.38-1.19-5.32,0.03c-4.6-1.26-8.82-2.83-12.55-5.67
		c-6.47-4.92-11.33-11.35-14.45-18.94c1.29-0.96,2.53-0.62,3.99-0.31c1.47,0.3,3.7-0.09,4.66,1.37c1.78,2.69,1.46,10.61,11.78,11.33
		l23.15,1.62c1.61,0.11,3.01,0.19,4.55,0.92l-0.55,4.22C104.24,391.81,98.66,393.98,92.75,393.98z"/>
	<path class="st17" d="M268.58,398.18c0.2,0.72,0.33,1.49,0.75,2.26c1.75-1.05,4.53-0.75,4.2-1.19l1.51,0.38
		c3.8,2.32,1.99,7.1,3.15,11.14c0.84-2.08,0.26-3.97,0.59-5.88c0.76,0.46,0.45,1.71,0.51,2.68c0.29,4.7,1.14,9.15,1.04,13.63
		c-0.97,0.2-1.03,3.09-3.76,2.22c-4.08-1.29-4.95,1.85-8.4-1.25c-6.56,0.23-12.92,0.02-19.45-0.13c-1.43-0.03-5.69,1.89-7.77-1.35
		c-1.06-1.26-35.4,2.84-34.93,2.74l-7.18,1.51c-1.88,0.4-3.66,0.12-5.29-0.9l-8.32,0.42l-18.91,0.44
		c-5.47,0.82-10.53,2.33-15.82,3.82c-2.83,0.8-5.67,1.25-8.52,0.63c-2.71-0.59-4.58-2.63-4.87-5.42l-3.29-0.36
		c-1.96-0.22-2.96-1.46-3.87-2.97c-0.21-0.35-1.51,0.02-1.69-0.48c-0.11-0.31-0.04-1.27-0.32-1.46c-0.81-0.54-2.03,0.38-2.57,1.17
		l-2.29,0.04c0.13,0-9.68,5.15-12.02-1.48c-0.3-0.86-0.28-1.92-1.29-1.81l1.86-20.72c0.38-4.2,1.04-8.1,1.18-12.51l47.8,3.84
		c4.22,0.34,7.74-0.27,10.88-3.18c2.21-2.04,3.83-5.55,2.99-8.39l-6.59-22.49l-11.45-37.15c7.19-1.02,12.13-2.77,19.52-3.23
		c-2.21,3.39-4.25,6.27-5.53,9.8c-2.26,6.27,0.83,12.81,7.4,14.24c0.34,3.13,2.69,5.88,5.63,6.79c1.92,0.6,2.39,1.61,3.41,3.25
		c1.26,2.03,4.35,3.83,6.62,3.85c2.63,0.02,4.46-0.78,6.54-2.38c1.08,2.02,3.9,2.25,5.13,3.76c1.19,1.46,1.62,3.45,3.1,4.89
		c2.84,2.76,5.26,5.68,8.29,8.31c13.43,11.63,27.42,22.47,43.75,29.86C263.05,396.35,265.85,397.22,268.58,398.18z M183.36,406.44
		c-0.01-0.02-4.91,0.46-5.01,1C178.97,407.76,183.68,407.03,183.36,406.44z"/>
	<path class="st17" d="M310.5,382.25c2.76-6.43,5.12-12.87,6.4-19.99c1.25-6.95,1.88-13.79,1.97-20.67
		c2.25-0.09,4.05,1.62,4.49,4.04c0.5,2.76,0.16,5.57-0.51,8.43c-2.26,9.72-6.34,18.75-11.43,27.28
		C311.14,381.82,310.87,382.11,310.5,382.25z"/>
	<path class="st17" d="M318.84,318.53c-0.02-1.74-0.23-3.39-0.31-5.34c-0.55-13.04-1.88-25.78-3.78-38.49
		c4.02,0.33,4.73,6.3,4.88,9.72c0.46,10.78,0.11,21.36-0.48,32.18C319.11,317.36,319.46,318.21,318.84,318.53z"/>
	<path class="st17" d="M314.64,273.62c-0.78-3.03-1.34-6.15-1.97-9.42c-1.08-5.61-2.53-10.9-4.05-16.2
		c6.07-0.75,7.14,8.17,6.85,12.77L314.64,273.62z"/>
	<path class="st17" d="M284.34,400.08c0.1,3.8,0.08,7.56-0.34,11.51c2.39,0.89,3.49,2.67,3.88,4.95c0.46,2.66-0.31,5.73-2.13,7.59
		c-1.5,1.53-2.88,1.05-3.89,0.06c1.3,0.07,2.35-0.76,2.33-2.27c-0.04-3.35-0.48-6.55-0.71-9.88c-0.28-4.07-0.65-7.98-1.27-11.92
		C283.12,399.77,283.74,400.16,284.34,400.08z"/>
	<path class="st17" d="M196.35,243.81c-0.17,1.36-0.8,2.65-0.82,4.04c0.91-0.14,0.87-0.79,1.26-0.95c0.29-0.12,0.6,0.05,0.86,0.17
		c1.39,1.79,0.54,2.5,2.75,3.92c0.24,0.39,0.36,0.88,0.75,1.28c0.76,0.03,4.7-2.45,4.37-3.15l13.83-9.33
		c3.01-2.03,5.72-4.15,9.06-6.16c-1.2,9.96-6.66,15.9-6.15,26.37c0.67,13.61,12.07,21.66,24.63,21.7
		c5.81,0.01,11.12-1.46,16.25-4.23c6-3.23,10.41-7.94,14.78-13.09c7.37-8.68,12.52-18.26,15.66-29.01c-0.34-1.71,0.2-3.27,1.22-3.76
		c1.29-0.62,2.9,0.69,3.75,1.37c1.15,0.93,1.76,2.01,2.07,2.66c1.69,4.55,3.96,11.15,6.13,19.27c4.97,18.58,6.43,33.26,7.38,47.67
		c0.87,13.15,1.56,26.04,1.21,38.98l-0.61-0.82c-0.61,5.65-1.44,11.44-2.53,17.35c-0.13,0.7-0.26,1.41-0.4,2.1
		c0.36,1.2,0.79,3.15,0.59,5.55c-0.23,2.76-1.17,4.84-1.8,5.99c-0.54,2.89-3.05,14.45-13.08,20.14c-2.12,1.21-4.24,1.95-6.2,2.41
		c-11.59,5.55-28.29-1.09-39.05-7.39c-14.75-8.63-28.65-19.11-40.27-31.44c0.05-1.4,0.51-2.12,0.91-2.52
		c0.8-0.8,1.69-0.62,3.41-1.42c0.99-0.46,1.64-0.97,2.15-1.36c1.09-0.84,3.13-2.42,3.82-5.09c0.19-0.72,0.47-2.28-0.16-4.31
		l1.88-6.66l0.27-2.08c0.35-2.73,0.88-4.95,0.06-7.73c-0.92-3.13-0.28-7.71-3.52-9.9c2.62-1.22,14.94,4.46,17.88,5.8
		c12.56,5.72,24.29,12.51,35.91,19.88c1,0.64,2.22,0.38,2.69-0.53c0.31-0.6,0.24-1.76-0.62-2.31l-11.47-7.3
		c-0.96-0.61-1.57-1.52-1.53-2.77c0.24-7.28,0.94-14.36,1.72-21.61l1.63-14.99c0.11-1.02-0.39-1.84-1.3-1.99
		c0,0-0.88-0.07-1.92,1.39c-1.56,2.21-5.76,28.27-6.32,31.77l0.5,3.74c-5.61-2.08-10.73-5.59-16.43-8.07
		c-5.09-2.21-9.91-4.32-15.18-6.05c-3.19-1.04-6.26-1.29-9.27,0.45c-1.91-2.02-3.83-3.41-5.76-5.1c-3.72-3.28-7.31-6.44-11.48-9.23
		c-10.57-7.06-28.46-2.62-39.5,1.87c-2.76,1.12-5.14,2.28-7.8,4.28l-5.82-18.6c9.89-7.34,15.31-19.88,15.65-31.93
		c0.09-3.38,0.01-6.36,0.46-9.89c1.03,1.44,2.13,1.43,3.15,1.98l7.22,3.9c0.37,1.25,0.34,2.6,0.32,4.09
		c1.63-0.49,2.94-1.7,4.48-1.89c1.52,0.11,3.28,0.16,3.83-1.78c0.41-1.43,1.81-2.32,2.51-3.53c0.82-1.43,6.7-13.01,8.08-12.07
		C193.79,237.34,195.43,240.46,196.35,243.81z"/>
</g>
</svg>
